<?xml version="1.0" encoding="UTF-8"?>
<!DOCTYPE svg PUBLIC "-//W3C//DTD SVG 1.1//EN" "http://www.w3.org/Graphics/SVG/1.1/DTD/svg11.dtd">
<!-- Creator: CorelDRAW 2021.5 -->
<svg xmlns="http://www.w3.org/2000/svg" xml:space="preserve" width="303.805mm" height="303.805mm" version="1.1" style="shape-rendering:geometricPrecision; text-rendering:geometricPrecision; image-rendering:optimizeQuality; fill-rule:evenodd; clip-rule:evenodd"
viewBox="0 0 30380.5 30380.5"
 xmlns:xlink="http://www.w3.org/1999/xlink"
 xmlns:xodm="http://www.corel.com/coreldraw/odm/2003">
 <defs>
  <style type="text/css">
   <![CDATA[
    .str0 {stroke:#565ecd;stroke-width:20;stroke-miterlimit:22.9256}
    .fil0 {fill:#565ecd}
   ]]>
  </style>
 </defs>
 <g id="Layer_x0020_1">
  <metadata id="CorelCorpID_0Corel-Layer"/>
  <path class="fil0 str0" d="M16005.03 1814.71c6746.8,408.34 12145.87,5807.4 12554.2,12554.11l-2860.29 0c-452.07,0 -821.91,369.84 -821.91,821.92l0 0.04c0,452.08 369.84,821.91 821.91,821.91l2860.29 0c-408.33,6746.71 -5807.36,12145.82 -12554.15,12554.16l0 -2860.25c0,-452.07 -369.84,-821.91 -821.92,-821.91l-0.04 0c-452.08,0 -821.91,369.84 -821.91,821.91l0 2860.29c-6746.71,-408.33 -12145.82,-5807.36 -12554.16,-12554.15l2860.25 0c452.07,0 821.91,-369.84 821.91,-821.92l0 -0.04c0,-452.08 -369.84,-821.91 -821.91,-821.91l-2860.29 0c408.33,-6746.71 5807.36,-12145.82 12554.15,-12554.16l0 2860.25c0,452.07 369.84,821.91 821.92,821.91l0.04 0c452.08,0 821.91,-369.84 821.91,-821.91l0 -2860.25zm-821.91 -1814.2c8389.36,0 15190.27,6800.91 15190.27,15190.27 0,8389.36 -6800.91,15190.27 -15190.27,15190.27 -8389.36,0 -15190.27,-6800.91 -15190.27,-15190.27 0,-8389.36 6800.91,-15190.27 15190.27,-15190.27zm6385.33 9129.69l-0.08 -0.04c-481.21,-240.61 -949.44,-421.4 -1312.97,-25.51l-5317.73 5791.12 -2979.18 -3209.61c-365.57,-393.85 -951.84,-373.38 -1312.97,25.55l-0.08 0.04c-361.14,398.93 -342.5,1056.46 23.07,1450.35l3511.74 3783.31c25.43,37.76 53.59,73.98 84.64,108.24l0.08 0.04c75.56,83.46 161.1,150.39 252.37,200.52 354.94,210.34 809.38,139.86 1108.9,-191l0.04 -0.12c47.98,-52.9 89.12,-110.48 123.75,-171.31l5795.35 -6311.19c363.74,-396.13 504.28,-1209.74 23.07,-1450.39z"/>
 </g>
</svg>
