<?xml version="1.0" encoding="UTF-8"?>
<!DOCTYPE svg PUBLIC "-//W3C//DTD SVG 1.1//EN" "http://www.w3.org/Graphics/SVG/1.1/DTD/svg11.dtd">
<!-- Creator: CorelDRAW 2021.5 -->
<svg xmlns="http://www.w3.org/2000/svg" xml:space="preserve" width="93.691mm" height="150mm" version="1.1" style="shape-rendering:geometricPrecision; text-rendering:geometricPrecision; image-rendering:optimizeQuality; fill-rule:evenodd; clip-rule:evenodd"
viewBox="0 0 9369.1 15000"
 xmlns:xlink="http://www.w3.org/1999/xlink"
 xmlns:xodm="http://www.corel.com/coreldraw/odm/2003">
 <defs>
  <style type="text/css">
   <![CDATA[
    .fil0 {fill:#fff;fill-rule:nonzero}
   ]]>
  </style>
 </defs>
 <g id="Layer_x0020_1">
  <metadata id="CorelCorpID_0Corel-Layer"/>
  <path class="fil0" d="M2359.73 3876.86l0 3875.39 -2361.21 0 4684.54 7249.22 4684.57 -7249.22 -2361.22 0 0 -3875.39 -4646.68 0zm0 -2325.23l0 1550.15 4646.68 0 0 -1550.15 -4646.68 0zm0 -1550.16l0 775.08 4646.68 0 0 -775.08 -4646.68 0zm0 5813.08m-1180.62 1937.7m1161.67 3624.61m4684.56 0m1161.67 -3624.61m-1180.6 -1937.7m-2323.35 -1937.69m-2323.33 -1550.16m2323.33 775.08m2323.35 -775.08m-2323.35 -775.07m-2323.33 -1162.62m2323.33 387.54m2323.35 -387.54m-2323.35 -387.54"/>
 </g>
</svg>
