<?xml version="1.0" encoding="UTF-8"?>
<!DOCTYPE svg PUBLIC "-//W3C//DTD SVG 1.1//EN" "http://www.w3.org/Graphics/SVG/1.1/DTD/svg11.dtd">
<!-- Creator: CorelDRAW 2021.5 -->
<svg xmlns="http://www.w3.org/2000/svg" xml:space="preserve" width="150mm" height="150mm" version="1.1" style="shape-rendering:geometricPrecision; text-rendering:geometricPrecision; image-rendering:optimizeQuality; fill-rule:evenodd; clip-rule:evenodd"
viewBox="0 0 15000 15000"
 xmlns:xlink="http://www.w3.org/1999/xlink"
 xmlns:xodm="http://www.corel.com/coreldraw/odm/2003">
 <defs>
  <style type="text/css">
   <![CDATA[
    .str0 {stroke:#565ecd;stroke-width:20;stroke-miterlimit:22.9256}
    .fil0 {fill:none}
    .fil1 {fill:#565ecd}
   ]]>
  </style>
 </defs>
 <g id="Layer_x0020_1">
  <metadata id="CorelCorpID_0Corel-Layer"/>
  <path class="fil0 str0" d="M28533.72 5459.75l753.59 -597c760.6,542.13 1474.71,1220.02 2119.03,2033.57l452.01 570.74 -452.01 570.74c-2669.75,3371.12 -6537.99,4412.08 -9947.9,3122.99l853.31 -682.26c2913.57,860.56 6102.43,-143.27 8373.93,-3011.47 -651.28,-822.38 -1377.96,-1491.49 -2151.96,-2007.31zm-10632.31 6521.5l4139.64 -3330.01c-181.89,-355.2 -284.49,-757.72 -284.49,-1184.18 0,-1436.91 1164.88,-2601.79 2601.79,-2601.79 420.51,0 817.76,99.77 1169.3,276.93 173.13,87.26 335.18,193.29 483.48,315.42l4140.03 -3330.29c227.36,-182.9 561.97,-146.6 744.84,80.71 182.87,227.35 146.59,561.99 -80.71,744.83l-4139.67 3330.04c83.03,162.17 149.59,334.19 197.34,513.84 56.85,213.86 87.18,438.54 87.18,670.31 0,1436.91 -1164.88,2601.79 -2601.79,2601.79 -627.64,0 -1203.34,-222.27 -1652.78,-592.37l-4140.03 3330.31c-227.33,182.88 -561.97,146.6 -744.84,-80.71 -182.87,-227.35 -146.62,-561.96 80.71,-744.83zm8501.72 -7526.21l848.59 -684.17c-3408.33,-1285.31 -7273.32,-243.49 -9941.36,3125.45l-452.01 570.74 452.01 570.74c644.29,813.55 1358.41,1491.42 2118.98,2033.54l741.7 -604.94c-769.51,-514.75 -1492.09,-1181.19 -2140.02,-1999.34 2271,-2867.61 5459.04,-3871.59 8372.11,-3012.02z"/>
  <path class="fil1" d="M14546.52 8072.21c-3862.47,4877.18 -10233.51,4877.18 -14095.98,0l-452.01 -570.74 452.01 -570.74c3862.47,-4877.18 10233.51,-4877.18 14095.98,0l452.01 570.74 -452.01 570.74zm-720.66 -570.74c-3494.5,-4412.52 -9160.16,-4412.52 -12654.66,0 3494.5,4412.52 9160.16,4412.52 12654.66,0zm-6327.33 -2601.79c1436.91,0 2601.79,1164.88 2601.79,2601.79 0,1436.91 -1164.88,2601.79 -2601.79,2601.79 -1436.91,0 -2601.79,-1164.88 -2601.79,-2601.79 0,-1436.91 1164.88,-2601.79 2601.79,-2601.79z"/>
 </g>
</svg>
