<?xml version="1.0" encoding="UTF-8"?>
<!DOCTYPE svg PUBLIC "-//W3C//DTD SVG 1.1//EN" "http://www.w3.org/Graphics/SVG/1.1/DTD/svg11.dtd">
<!-- Creator: CorelDRAW 2021.5 -->
<svg xmlns="http://www.w3.org/2000/svg" xml:space="preserve" width="1100px" height="1100px" version="1.1" style="shape-rendering:geometricPrecision; text-rendering:geometricPrecision; image-rendering:optimizeQuality; fill-rule:evenodd; clip-rule:evenodd"
viewBox="0 0 1100 1100"
 xmlns:xlink="http://www.w3.org/1999/xlink"
 xmlns:xodm="http://www.corel.com/coreldraw/odm/2003">
 <defs>
  <style type="text/css">
   <![CDATA[
    .str0 {stroke:#2B2A29;stroke-width:2.36;stroke-miterlimit:22.9256}
    .fil0 {fill:none}
   ]]>
  </style>
 </defs>
 <g id="Layer_x0020_1">
  <metadata id="CorelCorpID_0Corel-Layer"/>
  <path class="fil0 str0" d="M0 1100l0 -1100m0 1000l26.9 0m-26.9 -100l26.9 0m-26.9 -100l26.9 0m-26.9 -100l26.9 0m-26.9 -100l26.9 0m-26.9 -100l26.9 0m-26.9 -100l26.9 0m-26.9 -100l26.9 0m-26.9 -100l26.9 0m-26.9 -100l26.9 0"/>
  <path class="fil0 str0" d="M0 1100l1100 0m-1000 0l0 -26.9m100 26.9l0 -26.9m100 26.9l0 -26.9m100 26.9l0 -26.9m100 26.9l0 -26.9m100 26.9l0 -26.9m100 26.9l0 -26.9m100 26.9l0 -26.9m100 26.9l0 -26.9m100 26.9l0 -26.9"/>
  <polyline class="fil0 str0" points="100,900 200,1000 300,800 400,900 500,500 600,700 700,800 800,600 900,100 1000,900 "/>
 </g>
</svg>
