<?xml version="1.0" encoding="UTF-8"?>
<!DOCTYPE svg PUBLIC "-//W3C//DTD SVG 1.1//EN" "http://www.w3.org/Graphics/SVG/1.1/DTD/svg11.dtd">
<!-- Creator: CorelDRAW 2021.5 -->
<svg xmlns="http://www.w3.org/2000/svg" xml:space="preserve" width="151.704mm" height="144.985mm" version="1.1" style="shape-rendering:geometricPrecision; text-rendering:geometricPrecision; image-rendering:optimizeQuality; fill-rule:evenodd; clip-rule:evenodd"
viewBox="0 0 15170.4 14498.5"
 xmlns:xlink="http://www.w3.org/1999/xlink"
 xmlns:xodm="http://www.corel.com/coreldraw/odm/2003">
 <defs>
  <style type="text/css">
   <![CDATA[
    .fil1 {fill:#FEFEFE}
    .fil0 {fill:#3c428f}
   ]]>
  </style>
 </defs>
 <g id="Layer_x0020_1">
  <metadata id="CorelCorpID_0Corel-Layer"/>
  <path class="fil0" d="M8267.17 502.19l1449.78 4491.26 4719.43 -9.08c319.55,-0.63 591.31,196.43 690.06,500.37 98.77,303.91 -5.26,623.08 -264.16,810.41l-3823.45 2766.67 1467.02 4485.65c99.33,303.72 -4.08,623.09 -262.61,810.92 -258.51,187.84 -594.22,187.5 -852.39,-0.82l-3812.78 -2781.34 -3812.78 2781.34c-258.17,188.32 -593.88,188.66 -852.39,0.82 -258.51,-187.83 -361.94,-507.2 -262.61,-810.92l1467.02 -4485.65 -3823.45 -2766.67c-258.9,-187.33 -362.93,-506.5 -264.16,-810.41 98.75,-303.92 370.51,-501 690.06,-500.37l4719.43 9.08 1449.78 -4491.26c98.17,-304.11 369.55,-501.69 689.1,-501.69 319.55,0 590.93,197.58 689.1,501.69z"/>
  <polygon class="fil1" points="7578.07,2327.58 6324.28,6211.68 2242.83,6203.81 5549.42,8596.5 4280.72,12475.78 7578.07,10070.42 10875.42,12475.78 9606.72,8596.5 12913.31,6203.81 8831.86,6211.68 "/>
 </g>
</svg>
