<?xml version="1.0" encoding="UTF-8"?>
<!DOCTYPE svg PUBLIC "-//W3C//DTD SVG 1.1//EN" "http://www.w3.org/Graphics/SVG/1.1/DTD/svg11.dtd">
<!-- Creator: CorelDRAW 2021.5 -->
<svg xmlns="http://www.w3.org/2000/svg" xml:space="preserve" width="150mm" height="150mm" version="1.1" style="shape-rendering:geometricPrecision; text-rendering:geometricPrecision; image-rendering:optimizeQuality; fill-rule:evenodd; clip-rule:evenodd"
viewBox="0 0 15000 15000"
 xmlns:xlink="http://www.w3.org/1999/xlink"
 xmlns:xodm="http://www.corel.com/coreldraw/odm/2003">
 <defs>
  <style type="text/css">
   <![CDATA[
    .fil0 {fill:#E31E24}
    .fil1 {fill:#009846}
   ]]>
  </style>
 </defs>
 <g id="Layer_x0020_1">
  <metadata id="CorelCorpID_0Corel-Layer"/>
  <path class="fil0" d="M5543.87 4834.04l1954.66 1954.67 1954.66 -1954.67c196.28,-196.27 516.48,-196.28 712.77,0 196.28,196.29 196.28,516.48 0,712.77l-1954.67 1954.66 1954.67 1954.66c196.27,196.28 196.28,516.48 0,712.77 -196.29,196.28 -516.48,196.28 -712.77,0l-1954.66 -1954.67 -1954.66 1954.67c-196.29,196.28 -516.48,196.28 -712.77,0 -196.28,-196.29 -196.28,-516.48 0,-712.77l1954.67 -1954.66 -1954.67 -1954.66c-196.28,-196.29 -196.28,-516.48 0,-712.77 196.29,-196.28 516.48,-196.28 712.77,0zm-5545.34 -4832.57l15000 0 0 15000 -15000 0 0 -15000z"/>
  <path class="fil1" d="M28139.3 4942.91l-4266.62 4266.62 -2446.14 -2446.15c-196.29,-196.28 -516.49,-196.28 -712.77,0 -196.28,196.28 -196.28,516.48 0,712.77l2801.62 2801.62c98.37,98.38 227.86,147.44 357.29,147.2 129.42,0.23 258.92,-48.83 357.3,-147.2l4622.09 -4622.09c196.28,-196.29 196.28,-516.48 0,-712.77 -196.29,-196.28 -516.48,-196.28 -712.77,0zm-10856.38 -4832.57l15000 0 0 15000 -15000 0 0 -15000z"/>
 </g>
</svg>
